# xmcd
#
# Track frame offsets: 
#        150
#        12305
#        26007
#        40657
#        52777
#        66210
#        78547
#        91772
#
# Disc length: 1431 seconds
#
# Revision: 0
# Processed by: cddbd v1.5.2PL0 Copyright (c) Steve Scherf et al.
# Submitted via: ExactAudioCopy v0.99pb3
#
DISCID=55059508
DTITLE=Big Joe and The Dynaflows - I Warned You Baby
DYEAR=2000
DGENRE=Blues
TTITLE0=I Warned You Baby
TTITLE1=Meet Me Half Way
TTITLE2=Come Home
TTITLE3=I Hear A Rhapsody
TTITLE4=Boogie Woogie King
TTITLE5=What About Your Daughter
TTITLE6=Look A There
TTITLE7=Sentimental Journey
EXTD=
EXTT0=
EXTT1=
EXTT2=
EXTT3=
EXTT4=
EXTT5=
EXTT6=
EXTT7=
PLAYORDER=
